<svg width="255" height="255" viewBox="0 0 255 255" fill="none" xmlns="http://www.w3.org/2000/svg">
<rect width="255" height="255" fill="#CCEF4A"/>
<path d="M104.032 96.824C103.456 97.832 102.832 98.576 102.16 99.056C101.536 99.488 100.744 99.704 99.784 99.704C98.776 99.704 97.672 99.344 96.472 98.624C95.32 97.856 93.928 97.016 92.296 96.104C90.664 95.192 88.744 94.376 86.536 93.656C84.376 92.888 81.808 92.504 78.832 92.504C76.144 92.504 73.792 92.84 71.776 93.512C69.76 94.136 68.056 95.024 66.664 96.176C65.32 97.328 64.312 98.72 63.64 100.352C62.968 101.936 62.632 103.688 62.632 105.608C62.632 108.056 63.304 110.096 64.648 111.728C66.04 113.36 67.864 114.752 70.12 115.904C72.376 117.056 74.944 118.088 77.824 119C80.704 119.912 83.656 120.896 86.68 121.952C89.704 122.96 92.656 124.16 95.536 125.552C98.416 126.896 100.984 128.624 103.24 130.736C105.496 132.8 107.296 135.344 108.64 138.368C110.032 141.392 110.728 145.064 110.728 149.384C110.728 154.088 109.912 158.504 108.28 162.632C106.696 166.712 104.344 170.288 101.224 173.36C98.152 176.384 94.384 178.784 89.92 180.56C85.456 182.288 80.344 183.152 74.584 183.152C71.272 183.152 68.008 182.816 64.792 182.144C61.576 181.52 58.48 180.608 55.504 179.408C52.576 178.208 49.816 176.768 47.224 175.088C44.632 173.408 42.328 171.536 40.312 169.472L46 160.184C46.48 159.512 47.104 158.96 47.872 158.528C48.64 158.048 49.456 157.808 50.32 157.808C51.52 157.808 52.816 158.312 54.208 159.32C55.6 160.28 57.256 161.36 59.176 162.56C61.096 163.76 63.328 164.864 65.872 165.872C68.464 166.832 71.56 167.312 75.16 167.312C80.68 167.312 84.952 166.016 87.976 163.424C91 160.784 92.512 157.016 92.512 152.12C92.512 149.384 91.816 147.152 90.424 145.424C89.08 143.696 87.28 142.256 85.024 141.104C82.768 139.904 80.2 138.896 77.32 138.08C74.44 137.264 71.512 136.376 68.536 135.416C65.56 134.456 62.632 133.304 59.752 131.96C56.872 130.616 54.304 128.864 52.048 126.704C49.792 124.544 47.968 121.856 46.576 118.64C45.232 115.376 44.56 111.368 44.56 106.616C44.56 102.824 45.304 99.128 46.792 95.528C48.328 91.928 50.536 88.736 53.416 85.952C56.296 83.168 59.848 80.936 64.072 79.256C68.296 77.576 73.144 76.736 78.616 76.736C84.76 76.736 90.424 77.696 95.608 79.616C100.792 81.536 105.208 84.224 108.856 87.68L104.032 96.824Z" fill="black"/>
<path d="M146.991 121.52H151.527C153.351 121.52 154.863 121.28 156.063 120.8C157.263 120.272 158.295 119.456 159.159 118.352L187.887 81.992C189.087 80.456 190.335 79.4 191.631 78.824C192.975 78.2 194.655 77.888 196.671 77.888H213.375L178.311 121.16C176.247 123.8 174.111 125.672 171.903 126.776C173.487 127.352 174.903 128.168 176.151 129.224C177.447 130.232 178.671 131.576 179.823 133.256L215.967 182H198.903C196.599 182 194.871 181.688 193.719 181.064C192.615 180.392 191.679 179.432 190.911 178.184L161.463 139.736C160.551 138.44 159.495 137.528 158.295 137C157.095 136.472 155.367 136.208 153.111 136.208H146.991V182H127.623V77.888H146.991V121.52Z" fill="black"/>
</svg>
